<svg width="2000" height="2000" viewBox="0 0 2000 2000" fill="none" xmlns="http://www.w3.org/2000/svg">
<g clip-path="url(#clip0_44_6)">
<path d="M1565.73 555.533C1654.41 603.463 1654.41 730.7 1565.73 778.63L608.37 1296.09C523.886 1341.75 421.278 1280.57 421.278 1184.54L421.278 149.624C421.278 53.5894 523.886 -7.58829 608.37 38.0755L1565.73 555.533Z" fill="white"/>
<path d="M1145.96 1050.12L845.771 1213.32C831.572 1221.04 822.732 1235.9 822.732 1252.07V1411.63C822.732 1435.99 802.986 1455.74 778.628 1455.74H669.289C632.119 1455.74 611.619 1498.9 635.104 1527.71L985.769 1957.9C1003.46 1979.6 1036.65 1979.54 1054.26 1957.75L1401.98 1527.57C1425.29 1498.72 1404.76 1455.74 1367.68 1455.74H1255.23C1230.87 1455.74 1211.13 1435.99 1211.13 1411.63V1088.87C1211.13 1055.42 1175.34 1034.15 1145.96 1050.12Z" fill="white" stroke="white" stroke-width="0.275652"/>
</g>
<defs>
<clipPath id="clip0_44_6">
<rect width="2000" height="2000" fill="white"/>
</clipPath>
</defs>
</svg>
